<?xml version="1.0" standalone="no"?>
<!DOCTYPE svg PUBLIC "-//W3C//DTD SVG 20010904//EN"
 "http://www.w3.org/TR/2001/REC-SVG-20010904/DTD/svg10.dtd">
<svg version="1.0" xmlns="http://www.w3.org/2000/svg"
 width="256.000000pt" height="256.000000pt" viewBox="0 0 256.000000 256.000000"
 preserveAspectRatio="xMidYMid meet">

<g transform="translate(0.000000,256.000000) scale(0.100000,-0.100000)"
fill="#000000" stroke="none">
<path d="M1135 2509 c-373 -42 -696 -246 -908 -575 -138 -214 -205 -503 -178
-767 32 -310 140 -537 360 -758 245 -246 518 -358 871 -359 397 0 746 174 984
490 159 211 230 410 243 676 17 376 -95 672 -355 933 -216 217 -445 328 -744
360 -110 12 -158 12 -273 0z m310 -84 c180 -27 302 -73 454 -171 101 -66 275
-237 278 -273 1 -13 0 -21 -3 -18 -7 6 -54 -33 -54 -44 0 -5 -16 -24 -35 -43
-19 -20 -35 -41 -35 -47 0 -7 -3 -10 -6 -6 -3 3 -13 -2 -23 -12 -14 -14 -16
-30 -13 -82 3 -55 0 -69 -20 -98 -32 -47 -83 -73 -135 -69 -24 2 -43 0 -43 -4
0 -4 -23 -35 -52 -70 -29 -35 -56 -67 -60 -73 -5 -5 -18 -22 -31 -36 -12 -14
-35 -42 -52 -62 -16 -21 -47 -56 -67 -79 -21 -24 -38 -46 -38 -50 0 -4 -21
-30 -47 -57 -69 -71 -90 -95 -90 -101 0 -5 -30 -42 -80 -97 -18 -20 -33 -39
-33 -43 0 -4 -20 -29 -45 -54 -25 -26 -45 -54 -45 -61 0 -8 -5 -17 -12 -21 -7
-5 -8 -2 -3 7 5 8 -6 1 -23 -16 -17 -16 -32 -33 -32 -36 0 -4 19 -4 43 -2 126
14 209 -125 137 -227 -42 -58 -118 -76 -186 -44 -47 22 -74 70 -74 130 0 44
-1 46 -15 28 -8 -10 -15 -28 -15 -39 0 -17 -2 -17 -10 -5 -5 8 -10 12 -11 8
-1 -5 -2 -11 -3 -16 0 -4 -30 -41 -66 -82 -35 -41 -71 -84 -80 -95 -8 -10 -32
-37 -52 -58 l-38 -39 -47 27 c-179 103 -347 285 -449 487 -177 352 -143 828
84 1148 269 378 685 561 1127 495z m624 -1134 c68 -35 91 -138 46 -207 -23
-36 -97 -67 -138 -59 -53 12 -86 37 -108 83 -62 127 71 248 200 183z m-279
-481 c59 -42 77 -132 37 -191 -43 -65 -131 -88 -194 -49 -108 66 -89 220 32
262 31 11 95 -1 125 -22z"/>
</g>
</svg>
